<svg width="220" height="102" fill="none" xmlns="http://www.w3.org/2000/svg"><g clip-path="url(#clip0)" fill="#7E7C7B"><path d="M30 24.3a44.3 44.3 0 00-.3-4.8c0-.7 0-1.4.2-2.1 0-.7.2-1.4.5-2 1.2-2.8 3.2-3.7 6-2.7 1.7.7 2.8 1.4 3.4 2.3.5.8.7 2.2.6 4.2a230.8 230.8 0 01-1.6 17.2v2.5c.2.9.4 1.8.8 2.6A4 4 0 0140 44c-.1.8-.6 1.6-1.2 2.3-.7.7-1.1 1.6-1.3 2.5L36.4 55c-.4 2.2-.4 4.4 0 6.5a6 6 0 01-.6 4.2 9.5 9.5 0 01-2.9 3c-.8.7-1.7.9-2.6.7-.8-.2-1.5-.8-1.9-1.9-.4-1.1-.7-2.3-.8-3.5l-.2-3.7v-4.2l-.1-4.4c-.2-1.1-.7-1.5-1.7-1.3a295.2 295.2 0 01-9.7 1.8c-1.3.3-2 1.2-2.1 2.7a49.8 49.8 0 00-.7 6.7 8 8 0 01-2 4.7 11 11 0 01-4.4 2.7c-.7.2-1.3.2-1.8-.1-.5-.3-.8-.8-.9-1.6a193 193 0 00-.5-13c-.3-1-1-1.8-2-2.6-2-1.5-2-2.9 0-4.2a6 6 0 002.4-3c.4-1.2.4-2.5.3-4-.2-2.4-.2-5-.2-7.5 0-2.6-.5-5.1-1.3-7.6a4 4 0 01.3-3.4c.6-1 1.5-1.7 2.6-2 1.2-.4 2.5-.4 4 .2 1.4.5 2.4 1.3 2.8 2.5.6 1.5 1 3 1 4.7.3 2.2.4 4.3.5 6.4a183.8 183.8 0 00.6 9.5c0 1.1.7 1.7 2 1.9 1.8.1 3.5 0 5.2-.5a116.6 116.6 0 005.7-1.8l.5-.6c.3-.4.5-1 .5-1.5.2-2.7.5-5.5 1-8.2.5-2.7.7-5.6.6-8.4zM69.4 61.1a31.3 31.3 0 01-10.2-1.6c-1.6-.5-3.2-1.6-4.6-3a39.6 39.6 0 01-3.7-4.9 13.8 13.8 0 01-2.2-6A43.6 43.6 0 0150.1 29a36.6 36.6 0 018.6-14.6c1.4-1.4 3-2.4 4.8-3l1-.3 1-.1c.4 0 .7 0 1 .2 1.5 1 3.3 1.4 5 1.4h1.6l1.4-.2a5 5 0 011-.1h2.3c6 0 10.6 1.7 14 5.3 2 2 3.4 4.4 4.4 7.2 1 2.8 1.5 5.8 1.3 9a28.8 28.8 0 01-14 23.6c-4 2.5-8.8 3.8-14.1 3.8zm6-42.8a21.3 21.3 0 00-12.4 4c-1 .8-1.9 1.9-2.5 3A35.6 35.6 0 0057 46.3c.1.9.4 1.8.7 2.6.4 1 1.1 1.8 2.1 2.4a38 38 0 004.1 2.2 11.5 11.5 0 008 .6c2-.6 4-1.4 5.9-2.4a20.8 20.8 0 009.5-10.4c1.1-2.4 1.6-5.4 1.6-8.9.2-5-1.4-8.9-4.9-11.5-2-1.7-4.9-2.5-8.5-2.5zM147.4 29.9c-2.7 9.2-8 17.3-15.5 24-2 2-4.2 3.3-6.5 4-2.4.8-4.9 1.1-7.4 1.1-2 0-3.8-.4-5.3-1.3a13.8 13.8 0 01-6.5-9.6c-.9-4.5-1.1-9-.7-13.6a66.1 66.1 0 013.2-14.5c0-.3.2-.6.4-1 .6-1.2 1.2-2 1.9-2.4.7-.5 1.6-.7 2.8-.6 1.5.1 2.7.5 3.6 1.2.8.7 1.2 1.7 1.2 3-.1.7-.2 1.4-.5 2.2l-.6 2.1c-.6 2.5-1.3 5-1.8 7.6a28.3 28.3 0 00-.3 15.7c.7 2.7 2.5 3.5 5.5 2.2 2.5-.9 4.5-2.2 6.2-3.9 1.7-1.7 3.2-3.5 4.5-5.5 2.5-3.7 4.5-7.7 6-12A37 37 0 00140 16v-1.2c0-.7.2-1.5.4-2.2.2-.7.8-1.2 1.7-1.6.8-.3 1.5-.3 2 0l1.6 1c1.7 1.2 2.7 3 3 5.2a28.6 28.6 0 01-1.3 12.7zM162.9 50.5h-.2a5.3 5.3 0 01-3.8-2 5.2 5.2 0 01-1.3-4.2c.4-1.1.7-2.3.9-3.5l.5-3.5.1-1.8a73.1 73.1 0 001.4-14.5c0-4.2 0-8.3-.2-12.4v-.1a60 60 0 010-5.2 4 4 0 011.1-2.4c.6-.6 1.4-.9 2.4-.9.6 0 1.2.1 1.7.4 2.1.8 3.7 2.3 4.6 4.3l.5 1 .5 1 1.6 3.6c.6 1.3 1 2.5 1.4 3.8a35 35 0 001.7 4.3 275.9 275.9 0 014.3 8.9c.5 1.3 1.4 2 2.7 2 1.2 0 2.1-.6 2.9-1.8a41.5 41.5 0 006.9-19.7c.5-2.3 1.7-3.5 3.6-3.5.8 0 1.5.2 2.2.5 3.5 1.4 5.8 3.5 6.7 6.3l1 3.1a193.5 193.5 0 002.3 6.7l1.2 3.8v.3c1 3.3 2.1 6.5 3.3 9.8 1.3 3.2 3.1 6.2 5.6 9 1.1 1.3 1.6 2.3 1.5 3-.2.8-.4 1.3-.6 1.5-.4.7-1.2 1-2.2 1-1.3 0-2.4-.4-3.5-1.3a19.5 19.5 0 01-6.3-7.5l-1.6-4.2-1.5-4.3a76.4 76.4 0 01-2-5.7c-.5-1.6-1.5-2.4-3-2.4-1.3 0-2.2.5-3 1.5a7 7 0 00-1.6 2.4c-.2.7-.5 1.5-.6 2.4-.2.4-.3.9-.3 1.3l-.3 1.5a115.8 115.8 0 00-2 8c-.2 1-.5 1.6-.9 1.8a2 2 0 01-1.3.4 9.5 9.5 0 01-8.3-4.7 61.3 61.3 0 00-4-5.3l-.8-1.2c-.7-1-1.5-1.8-2.4-2.5a3.8 3.8 0 00-3.7-.8l-1 .7c-.6.6-1 1.4-1.1 2.3l-.6 5-.6 4.7-.3 3-.1.9-.1.7c-.4 3-1.5 4.5-3.4 4.5zM51 72.5a48.9 48.9 0 003.6 4.5 34 34 0 0015.3 12.2 45 45 0 0019.6 2.6c5-.4 9.9-1.2 14.8-2.4 4.8-1.2 9.6-2.8 14.2-5 2.5-1 5-2 7.5-3.3 2.5-1.2 4.7-2.8 6.7-4.7l4.8-4.5c1.6-1.6 3-3.4 4.2-5.2 1.2-1.7 2.3-2.5 3.4-2.6 1.2 0 2.5.5 4 1.7.7.6 1 1.4 1.2 2.1 0 .8 0 1.6-.2 2.3-.6 2-1.4 3.5-2.5 4.7a60 60 0 01-18 15.2 87.3 87.3 0 01-38.8 11.7c-9 .7-17-.4-24.3-3.5-7.2-3-13.5-8.3-18.8-15.6a19 19 0 01-3.6-8c-.6-3.3.8-4.6 4.2-3.9 1 0 2 .6 2.8 1.7z"/></g><defs><clipPath id="clip0"><path fill="#fff" d="M0 0h220v102H0z"/></clipPath></defs></svg>
